<?xml version="1.0" standalone="no"?>
<!DOCTYPE svg PUBLIC "-//W3C//DTD SVG 20010904//EN"
 "http://www.w3.org/TR/2001/REC-SVG-20010904/DTD/svg10.dtd">
<svg version="1.0" xmlns="http://www.w3.org/2000/svg"
 width="214.000000pt" height="175.000000pt" viewBox="0 0 214.000000 175.000000"
 preserveAspectRatio="xMidYMid meet">

<g transform="translate(0.000000,175.000000) scale(0.100000,-0.100000)"
fill="#000000" stroke="none">
<path d="M933 1685 c-64 -19 -124 -58 -172 -110 -168 -183 -106 -480 122 -585
71 -33 83 -34 305 -32 l164 2 29 29 c23 24 29 38 29 75 0 24 4 47 9 50 4 3 12
38 15 77 7 69 6 72 -20 100 l-28 29 22 23 c49 52 13 179 -73 255 -58 51 -134
80 -240 93 -100 11 -110 11 -162 -6z m97 -28 c0 -21 -7 -25 -54 -36 -64 -14
-134 -57 -169 -103 -35 -45 -67 -117 -67 -150 0 -23 -4 -28 -26 -28 -26 0 -26
2 -20 43 18 122 118 238 238 276 84 27 98 26 98 -2z m217 -37 c34 -17 77 -48
96 -70 38 -45 63 -109 44 -115 -7 -3 -85 -6 -175 -7 l-162 -3 0 33 c0 17 -4
32 -10 32 -6 0 -10 -32 -10 -75 l0 -75 -135 0 c-74 0 -135 3 -135 8 0 4 3 17
6 30 5 19 11 22 31 17 17 -4 30 1 48 19 30 30 31 45 5 79 l-20 25 35 26 c45
35 97 56 135 56 28 0 30 -3 30 -35 0 -19 5 -35 10 -35 6 0 10 20 10 45 0 35 3
43 15 39 8 -4 15 -1 15 5 0 6 -7 11 -15 11 -8 0 -15 7 -15 16 0 28 121 11 197
-26z m-407 -166 c0 -26 -20 -40 -45 -30 -14 5 -14 9 0 35 18 35 45 32 45 -5z
m560 -68 c0 -19 -18 -24 -57 -19 -19 4 -42 -1 -62 -13 -29 -17 -32 -17 -66 -1
-44 21 -75 22 -101 2 -10 -8 -29 -15 -41 -15 -19 0 -23 5 -23 30 l0 30 175 0
c144 0 175 -2 175 -14z m-196 -61 c18 -14 14 -15 -45 -15 -60 1 -63 1 -39 15
32 18 60 18 84 0z m156 0 c0 -11 -12 -15 -47 -15 -47 1 -47 1 -23 15 33 19 70
19 70 0z m-615 -60 c15 -66 35 -102 82 -148 45 -46 100 -76 156 -85 33 -6 43
-12 45 -30 3 -19 -1 -22 -27 -22 -54 0 -139 39 -196 91 -61 56 -101 130 -111
202 -7 47 -6 49 16 45 19 -2 26 -12 35 -53z m283 -82 c2 -124 1 -133 -16 -133
-29 0 -104 29 -132 50 -22 17 -23 22 -12 39 31 52 -12 119 -69 107 -23 -4 -27
-1 -33 26 -3 16 -3 34 0 39 3 5 62 8 132 7 l127 -3 3 -132z m110 40 c-49 -48
-59 -55 -72 -44 -16 13 -22 81 -9 94 3 4 36 7 72 7 l66 0 -57 -57z m246 47
c26 -9 32 -31 20 -64 -5 -13 -26 -16 -127 -16 l-121 0 44 45 c42 43 47 45 101
45 32 0 69 -4 83 -10z m-534 -70 c8 -14 7 -26 -1 -42 l-12 -22 -23 30 c-13 16
-24 35 -24 42 0 20 48 14 60 -8z m548 -57 c-3 -14 -12 -17 -46 -15 -26 2 -50
-2 -64 -12 -29 -21 -49 -20 -87 1 -26 16 -34 16 -63 4 -18 -7 -45 -16 -60 -18
-23 -4 -28 -2 -28 15 0 15 5 19 19 15 11 -3 30 2 43 11 18 13 50 16 156 16
122 0 133 -2 130 -17z m-198 -58 c33 -19 70 -19 98 1 15 10 32 13 52 9 24 -5
30 -12 30 -34 0 -15 -9 -37 -20 -49 -20 -21 -30 -22 -165 -22 l-145 0 0 40 c0
37 2 40 28 40 16 0 37 7 48 15 24 18 42 18 74 0z"/>
<path d="M1176 1613 c-11 -11 -6 -23 9 -23 8 0 15 4 15 9 0 13 -16 22 -24 14z"/>
<path d="M1097 1584 c-8 -8 1 -24 14 -24 5 0 9 7 9 15 0 15 -12 20 -23 9z"/>
<path d="M1240 1575 c0 -8 5 -15 10 -15 6 0 10 7 10 15 0 8 -4 15 -10 15 -5 0
-10 -7 -10 -15z"/>
<path d="M932 1548 c-19 -19 -14 -46 9 -59 18 -9 25 -7 41 9 16 16 18 23 9 41
-13 23 -40 28 -59 9z m38 -23 c0 -8 -4 -15 -9 -15 -13 0 -22 16 -14 24 11 11
23 6 23 -9z"/>
<path d="M1095 1521 c-6 -11 9 -23 19 -14 9 9 7 23 -3 23 -6 0 -12 -4 -16 -9z"/>
<path d="M1170 1520 c0 -5 5 -10 10 -10 6 0 10 5 10 10 0 6 -4 10 -10 10 -5 0
-10 -4 -10 -10z"/>
<path d="M1240 1505 c0 -8 5 -15 10 -15 6 0 10 7 10 15 0 8 -4 15 -10 15 -5 0
-10 -7 -10 -15z"/>
<path d="M1312 1509 c2 -6 8 -10 13 -10 5 0 11 4 13 10 2 6 -4 11 -13 11 -9 0
-15 -5 -13 -11z"/>
<path d="M1070 1475 c0 -9 5 -15 11 -13 6 2 11 8 11 13 0 5 -5 11 -11 13 -6 2
-11 -4 -11 -13z"/>
<path d="M1177 1464 c-8 -8 1 -24 14 -24 5 0 9 7 9 15 0 15 -12 20 -23 9z"/>
<path d="M1290 1455 c0 -9 5 -15 11 -13 6 2 11 8 11 13 0 5 -5 11 -11 13 -6 2
-11 -4 -11 -13z"/>
<path d="M935 1437 c-26 -20 -16 -61 16 -65 29 -3 54 20 46 42 -10 25 -42 37
-62 23z m35 -32 c0 -8 -4 -15 -9 -15 -13 0 -22 16 -14 24 11 11 23 6 23 -9z"/>
<path d="M923 1283 c-22 -8 -16 -61 7 -68 39 -12 66 35 38 63 -13 13 -24 14
-45 5z m37 -34 c0 -5 -7 -9 -15 -9 -15 0 -20 12 -9 23 8 8 24 -1 24 -14z"/>
<path d="M946 1167 c-36 -26 4 -84 42 -61 23 15 26 38 7 58 -20 19 -26 20 -49
3z m34 -32 c0 -8 -4 -15 -9 -15 -13 0 -22 16 -14 24 11 11 23 6 23 -9z"/>
<path d="M230 1649 c-123 -37 -177 -181 -107 -288 71 -107 244 -106 315 2 22
32 27 52 27 103 0 53 -4 68 -30 105 -48 67 -132 99 -205 78z"/>
<path d="M1834 1650 c-143 -33 -197 -198 -101 -307 96 -109 272 -73 318 64 45
136 -80 276 -217 243z"/>
<path d="M192 1194 c-49 -34 -52 -54 -52 -341 0 -155 5 -284 11 -306 17 -62
42 -71 207 -77 l144 -5 89 -165 c49 -91 101 -175 115 -187 37 -34 95 -31 136
6 58 52 50 83 -79 321 -64 118 -123 213 -138 225 -22 16 -45 21 -130 23 l-104
4 -3 230 -3 230 -33 29 c-27 24 -41 29 -85 29 -31 0 -61 -6 -75 -16z"/>
<path d="M1811 1194 c-45 -32 -51 -68 -51 -293 l0 -209 -103 -4 c-74 -2 -111
-8 -129 -20 -23 -15 -217 -362 -248 -442 -24 -64 30 -136 101 -136 58 0 87 34
185 218 l86 162 142 0 c222 0 216 -11 216 386 l0 286 -34 34 c-30 30 -40 34
-88 34 -33 0 -62 -6 -77 -16z"/>
<path d="M602 884 c-35 -24 -44 -59 -28 -99 8 -18 23 -38 34 -44 13 -7 85 -11
181 -11 89 0 161 -3 161 -7 0 -5 14 -145 30 -313 16 -168 30 -308 30 -312 0
-5 27 -8 60 -8 59 0 59 0 64 33 7 39 66 573 66 593 0 11 30 14 166 14 l166 0
29 29 c31 31 36 59 17 94 -25 47 -18 46 -498 47 -402 0 -458 -2 -478 -16z"/>
<path d="M216 409 c-26 -20 -26 -22 -26 -148 0 -120 1 -129 23 -149 20 -19 35
-22 108 -22 76 0 88 2 107 23 20 21 22 34 22 149 0 125 0 127 -26 147 -22 17
-41 21 -104 21 -63 0 -82 -4 -104 -21z"/>
<path d="M1743 406 c-27 -23 -28 -29 -31 -126 -6 -173 6 -190 136 -190 80 0
91 2 110 23 20 21 22 34 22 149 0 125 0 127 -26 147 -22 17 -41 21 -105 21
-68 0 -81 -3 -106 -24z"/>
</g>
</svg>
