<?xml version="1.0" standalone="no"?>
<!DOCTYPE svg PUBLIC "-//W3C//DTD SVG 20010904//EN"
 "http://www.w3.org/TR/2001/REC-SVG-20010904/DTD/svg10.dtd">
<svg version="1.0" xmlns="http://www.w3.org/2000/svg"
 width="312.000000pt" height="160.000000pt" viewBox="0 0 312.000000 160.000000"
 preserveAspectRatio="xMidYMid meet">

<g transform="translate(0.000000,160.000000) scale(0.100000,-0.100000)"
fill="#000000" stroke="none">
<path d="M2293 1534 c-90 -34 -124 -51 -129 -66 -7 -22 26 -74 168 -263 65
-86 89 -111 110 -113 45 -5 49 17 46 249 -4 275 5 267 -195 193z"/>
<path d="M2975 1430 c-3 -6 1 -7 9 -4 18 7 21 14 7 14 -6 0 -13 -4 -16 -10z"/>
<path d="M2940 1391 c-16 -31 -12 -77 11 -102 l21 -24 -16 25 c-18 28 -21 72
-6 101 6 10 8 19 6 19 -3 0 -10 -9 -16 -19z"/>
<path d="M3047 1379 c4 -13 8 -18 11 -10 2 7 -1 18 -6 23 -8 8 -9 4 -5 -13z"/>
<path d="M3107 1379 c4 -13 8 -18 11 -10 2 7 -1 18 -6 23 -8 8 -9 4 -5 -13z"/>
<path d="M3019 1341 c13 -3 28 -15 32 -26 5 -14 8 -15 8 -4 1 21 -19 39 -43
38 -18 -1 -18 -2 3 -8z"/>
<path d="M3111 1324 c0 -11 3 -14 6 -6 3 7 2 16 -1 19 -3 4 -6 -2 -5 -13z"/>
<path d="M2748 1283 c-8 -10 -50 -73 -92 -140 -81 -127 -91 -163 -43 -163 31
0 296 77 313 91 8 6 14 19 14 29 0 17 -113 160 -148 188 -21 16 -26 15 -44 -5z"/>
<path d="M3084 1278 l-19 -23 23 19 c21 18 27 26 19 26 -2 0 -12 -10 -23 -22z"/>
<path d="M2069 1084 c-17 -21 -36 -241 -22 -255 13 -13 294 45 331 68 15 9 22
22 20 36 -2 17 -34 38 -143 94 -77 40 -147 72 -156 73 -9 0 -22 -7 -30 -16z"/>
<path d="M1260 1013 c-8 -3 -23 -12 -32 -21 -17 -14 -18 -45 -18 -372 0 -345
1 -358 20 -375 25 -23 76 -24 98 -1 15 15 17 53 20 370 3 327 1 354 -15 374
-20 23 -50 33 -73 25z"/>
<path d="M2602 868 c-7 -7 -12 -18 -12 -24 0 -18 145 -256 169 -278 19 -17 23
-17 43 -4 33 22 140 183 136 204 -2 14 -39 30 -153 66 -166 53 -166 53 -183
36z"/>
<path d="M30 817 c-19 -9 -26 -22 -28 -51 -3 -32 16 -78 113 -278 109 -226
115 -241 101 -263 -11 -16 -28 -24 -61 -27 -112 -13 -114 -113 -3 -125 86 -10
150 41 187 148 59 170 173 560 168 574 -8 20 -54 37 -78 30 -27 -9 -42 -43
-78 -175 -56 -202 -63 -222 -71 -213 -5 4 -43 85 -85 178 -67 149 -108 215
-133 215 -4 0 -18 -6 -32 -13z"/>
<path d="M1542 814 l-22 -15 0 -353 c0 -393 0 -390 64 -390 61 0 70 18 76 151
4 102 7 114 19 99 37 -45 137 -61 204 -32 165 69 185 418 29 517 -87 55 -192
45 -247 -24 l-25 -32 0 32 c0 33 -29 63 -60 63 -9 0 -26 -7 -38 -16z m348
-109 c6 -3 19 -23 29 -43 66 -129 10 -312 -94 -312 -70 0 -115 74 -115 190 0
100 38 173 93 182 22 4 68 -5 87 -17z"/>
<path d="M2337 718 c-110 -115 -131 -149 -106 -173 8 -8 60 -29 117 -46 78
-25 108 -30 120 -22 15 9 17 33 20 168 2 155 -2 185 -32 185 -6 0 -60 -50
-119 -112z"/>
<path d="M795 813 c-58 -13 -90 -28 -121 -56 -122 -106 -122 -368 -1 -472 47
-40 91 -55 163 -55 111 0 204 58 204 129 0 68 -52 83 -106 30 -26 -25 -44 -33
-83 -37 -74 -7 -120 29 -136 106 l-7 32 164 0 c202 0 203 0 196 91 -11 132
-88 216 -213 232 -22 3 -49 3 -60 0z m58 -107 c37 -15 65 -51 74 -96 l6 -30
-127 0 -127 0 6 23 c14 44 49 89 79 103 40 17 49 17 89 0z"/>
</g>
</svg>
